<?xml version="1.0" encoding="UTF-8" standalone="no"?>
<svg
   height="16"
   viewBox="0 0 16 16"
   width="16"
   version="1.1"
   id="svg4"
   sodipodi:docname="icon_action_copy.svg"
   inkscape:version="1.1.2 (b8e25be833, 2022-02-05)"
   xmlns:inkscape="http://www.inkscape.org/namespaces/inkscape"
   xmlns:sodipodi="http://sodipodi.sourceforge.net/DTD/sodipodi-0.dtd"
   xmlns="http://www.w3.org/2000/svg"
   xmlns:svg="http://www.w3.org/2000/svg">
  <defs
     id="defs8" />
  <sodipodi:namedview
     id="namedview6"
     pagecolor="#ffffff"
     bordercolor="#666666"
     borderopacity="1.0"
     inkscape:pageshadow="2"
     inkscape:pageopacity="0.0"
     inkscape:pagecheckerboard="0"
     showgrid="false"
     inkscape:zoom="54.5625"
     inkscape:cx="8"
     inkscape:cy="8.0091638"
     inkscape:window-width="1920"
     inkscape:window-height="1019"
     inkscape:window-x="-974"
     inkscape:window-y="1440"
     inkscape:window-maximized="0"
     inkscape:current-layer="svg4" />
  <path
     d="m2 1c-.554 0-1 .446-1 1v9c0 .554.446 1 1 1h1v-9h9v-1c0-.554-.446-1-1-1zm3 3c-.554 0-1 .446-1 1v9c0 .554.446 1 1 1h9c.554 0 1-.446 1-1v-9c0-.554-.446-1-1-1zm1 2h7v7h-7z"
     fill="#e0e0e0"
     id="path2"
     
      />
</svg>
