<?xml version="1.0" encoding="UTF-8" standalone="no"?>
<svg
   height="16"
   viewBox="0 0 16 16"
   width="16"
   version="1.1"
   id="svg4"
   sodipodi:docname="icon_2_d.svg"
   inkscape:version="1.1.2 (b8e25be833, 2022-02-05)"
   xmlns:inkscape="http://www.inkscape.org/namespaces/inkscape"
   xmlns:sodipodi="http://sodipodi.sourceforge.net/DTD/sodipodi-0.dtd"
   xmlns="http://www.w3.org/2000/svg"
   xmlns:svg="http://www.w3.org/2000/svg">
  <defs
     id="defs8" />
  <sodipodi:namedview
     id="namedview6"
     pagecolor="#ffffff"
     bordercolor="#666666"
     borderopacity="1.0"
     inkscape:pageshadow="2"
     inkscape:pageopacity="0.0"
     inkscape:pagecheckerboard="0"
     showgrid="false"
     inkscape:zoom="19.290757"
     inkscape:cx="3.6027617"
     inkscape:cy="17.002962"
     inkscape:window-width="1918"
     inkscape:window-height="987"
     inkscape:window-x="-973"
     inkscape:window-y="1471"
     inkscape:window-maximized="0"
     inkscape:current-layer="svg4" />
  <path
     d="m3.9844 1.002a1.0001 1.0001 0 0 0 -.69141.29102l-2 2a1 1 0 0 0 0 1.4141 1 1 0 0 0 1.4141 0l.29297-.29297v8.5859h8.5859l-.29297.29297a1 1 0 0 0 0 1.4141 1 1 0 0 0 1.4141 0l2-2a1.0001 1.0001 0 0 0 0-1.4141l-2-2a1 1 0 0 0 -.7207-.29102 1 1 0 0 0 -.69336.29102 1 1 0 0 0 0 1.4141l.29297.29297h-6.5859v-6.5859l.29297.29297a1 1 0 0 0 1.4141 0 1 1 0 0 0 0-1.4141l-2-2a1.0001 1.0001 0 0 0 -.72266-.29102z"
     fill="#e0e0e0"
     id="path2"
     
     />
</svg>
