<?xml version="1.0" encoding="UTF-8" standalone="no"?><svg height="16" viewBox="0 0 16 16" width="16" version="1.1" id="svg25" sodipodi:docname="icon_canvas_item_shader_graph.svg" inkscape:version="1.1.2 (b8e25be833, 2022-02-05)" xmlns:inkscape="http://www.inkscape.org/namespaces/inkscape" xmlns:sodipodi="http://sodipodi.sourceforge.net/DTD/sodipodi-0.dtd" xmlns="http://www.w3.org/2000/svg" xmlns:svg="http://www.w3.org/2000/svg"><defs id="defs29" /><sodipodi:namedview id="namedview27" pagecolor="#ffffff" bordercolor="#666666" borderopacity="1.0" inkscape:pageshadow="2" inkscape:pageopacity="0.0" inkscape:pagecheckerboard="0" showgrid="false" inkscape:zoom="38.581514" inkscape:cx="10.445417" inkscape:cy="8.6569957" inkscape:window-width="1920" inkscape:window-height="1027" inkscape:window-x="946" inkscape:window-y="1432" inkscape:window-maximized="1" inkscape:current-layer="svg25" /><clipPath id="a"><path d="m8.0625 1025.9a3.375 3 0 0 0 -3.375 3 3.375 3 0 0 0 1.6875 2.5957v9.8115a3.375 3 0 0 0 -1.6875 2.5928 3.375 3 0 0 0 3.375 3 3.375 3 0 0 0 3.375-3 3.375 3 0 0 0 -1.6875-2.5957v-8.7832l11.931 10.605a3.375 3 0 0 0 -.11865.7735 3.375 3 0 0 0 3.375 3 3.375 3 0 0 0 3.375-3 3.375 3 0 0 0 -3.375-3 3.375 3 0 0 0 -.87341.1025l-11.928-10.602h9.8844a3.375 3 0 0 0 2.9169 1.5 3.375 3 0 0 0 3.375-3 3.375 3 0 0 0 -3.375-3 3.375 3 0 0 0 -2.9202 1.5h-11.038a3.375 3 0 0 0 -2.9169-1.5z" id="path2" /></clipPath><g clip-path="url(#a)" transform="matrix(0.59259,0,0,0.66667,-1.7778,-682.95)" id="g19" style="display:inline" inkscape:label="g19"><path d="m 3,1025.9 h 27 v 3 H 3 Z" fill="#b94343" id="path5" /><path d="m 3,1028.9 h 27 v 3 H 3 Z" fill="#b9a243" id="path7" /><path d="m 3,1031.9 h 27 v 3 H 3 Z" fill="#739b36" id="path9" /><path d="m 3,1034.9 h 27 v 3 H 3 Z" fill="#43b99e" id="path11" /><path d="m 3,1037.9 h 27 v 3 H 3 Z" fill="#3e8fb0" id="path13" /><path d="m 3,1043.9 h 27 v 3 H 3 Z" fill="#b94397" id="path15" /><path d="m 3,1040.9 h 27 v 3 H 3 Z" fill="#9643b9" id="path17" /></g></svg>